<?xml version="1.0" standalone="no"?>
<!DOCTYPE svg PUBLIC "-//W3C//DTD SVG 20010904//EN"
 "http://www.w3.org/TR/2001/REC-SVG-20010904/DTD/svg10.dtd">
<svg version="1.0" xmlns="http://www.w3.org/2000/svg"
 width="512.000000pt" height="512.000000pt" viewBox="0 0 512.000000 512.000000"
 preserveAspectRatio="xMidYMid meet">
<metadata>
Created by potrace 1.14, written by Peter Selinger 2001-2017
</metadata>
<g transform="translate(0.000000,512.000000) scale(0.100000,-0.100000)"
fill="#000000" stroke="none">
<path d="M0 2560 l0 -2560 2560 0 2560 0 0 2560 0 2560 -2560 0 -2560 0 0
-2560z m4035 2017 c178 -56 292 -151 368 -307 82 -168 78 -77 75 -1610 -3
-1521 3 -1390 -80 -1559 -80 -164 -217 -270 -420 -324 l-83 -22 -1340 0 -1340
0 -84 23 c-47 12 -110 34 -140 48 -176 80 -298 249 -342 474 -7 38 -10 477 -9
1403 l1 1348 24 96 c16 62 39 120 65 164 84 142 250 250 441 288 24 5 658 8
1409 8 l1365 -2 90 -28z"/>
<path d="M2505 4250 l-1320 -5 -47 -23 c-61 -30 -122 -100 -145 -165 -17 -49
-18 -126 -18 -1392 l0 -1340 24 -53 c29 -65 95 -124 167 -152 54 -20 73 -20
1388 -20 l1334 0 58 21 c75 28 135 84 168 158 l26 58 0 1329 c0 945 -3 1341
-11 1369 -24 85 -74 151 -139 185 -36 18 -132 42 -153 38 -7 -2 -606 -5 -1332
-8z m1353 -645 c2 -2 1 -121 -3 -264 l-8 -261 -56 0 -56 0 -22 91 c-52 218
-143 309 -307 309 -60 0 -138 -34 -178 -76 -99 -106 -147 -374 -128 -707 15
-245 56 -410 124 -500 103 -136 312 -135 446 2 31 31 70 82 87 113 18 31 36
58 40 61 12 7 113 -16 113 -25 0 -5 -21 -49 -46 -100 -53 -105 -113 -170 -207
-222 -197 -110 -478 -78 -652 75 -41 36 -112 133 -143 195 -111 221 -127 608
-36 885 57 176 166 299 328 374 143 66 322 72 495 17 l93 -31 16 41 c16 39 16
40 56 34 22 -4 42 -9 44 -11z m-2078 -9 c273 -6 383 -33 530 -131 96 -64 155
-140 204 -265 56 -142 76 -330 57 -511 -23 -214 -78 -344 -200 -472 -60 -63
-91 -86 -155 -117 -91 -44 -220 -83 -346 -106 -70 -13 -431 -32 -642 -34 l-48
0 0 55 c0 54 1 55 28 55 40 0 115 41 129 70 16 32 19 1244 3 1284 -13 34 -64
64 -120 72 l-45 6 3 52 4 52 201 -3 c111 -2 290 -5 397 -7z m968 -1381 l42 -6
0 -125 0 -124 -136 0 c-120 0 -135 2 -130 16 3 9 6 66 6 127 l0 112 88 3 c48
1 106 0 130 -3z"/>
<path d="M1682 2795 l2 -678 101 6 c207 13 303 75 373 243 48 114 57 184 56
439 -1 213 -3 237 -27 326 -65 246 -158 325 -395 337 l-112 5 2 -678z"/>
</g>
</svg>
