<?xml version="1.0" standalone="no"?>
<!DOCTYPE svg PUBLIC "-//W3C//DTD SVG 20010904//EN"
 "http://www.w3.org/TR/2001/REC-SVG-20010904/DTD/svg10.dtd">
<svg version="1.0" xmlns="http://www.w3.org/2000/svg"
 width="512.000000pt" height="512.000000pt" viewBox="0 0 512.000000 512.000000"
 preserveAspectRatio="xMidYMid meet">
<metadata>
Created by potrace 1.14, written by Peter Selinger 2001-2017
</metadata>
<g transform="translate(0.000000,512.000000) scale(0.100000,-0.100000)"
fill="#000000" stroke="none">
<path d="M0 2560 l0 -2560 2560 0 2560 0 0 2560 0 2560 -2560 0 -2560 0 0
-2560z m3944 2039 c112 -28 155 -43 206 -67 53 -26 69 -37 136 -95 43 -37 116
-148 139 -212 10 -27 22 -54 26 -60 4 -5 10 -30 14 -55 14 -79 17 -2737 4
-2805 -12 -65 -37 -144 -51 -160 -4 -5 -8 -15 -8 -22 0 -28 -84 -144 -142
-198 -52 -47 -114 -84 -213 -126 -11 -4 -49 -16 -85 -26 -61 -17 -150 -18
-1405 -18 -1501 0 -1413 -4 -1574 72 -86 41 -86 41 -155 109 -62 63 -76 80
-76 94 0 5 -4 10 -8 10 -19 0 -76 142 -101 253 -16 67 -15 2737 0 2805 41 178
103 284 216 369 21 15 40 30 43 33 21 21 168 79 228 90 23 4 45 10 49 13 11
12 2711 8 2757 -4z"/>
<path d="M1201 4244 c-63 -18 -93 -35 -143 -85 -40 -38 -51 -62 -74 -147 -19
-74 -20 -2596 0 -2682 14 -61 35 -110 48 -110 4 0 8 -6 8 -12 0 -13 55 -54
100 -74 97 -45 34 -43 1430 -39 l1315 3 59 22 c92 35 169 124 190 220 8 39 9
2619 0 2669 -4 25 -13 56 -21 70 -7 14 -13 32 -13 39 0 6 -4 12 -10 12 -5 0
-10 5 -10 11 0 17 -49 57 -95 79 -68 31 -127 43 -185 36 -62 -8 -2317 -8
-2455 -1 -63 3 -106 0 -144 -11z m2647 -641 c15 -16 16 -32 10 -143 -3 -69 -7
-178 -7 -243 -1 -133 -7 -147 -64 -147 -43 0 -50 8 -71 95 -24 92 -47 155 -57
155 -5 0 -9 8 -9 18 0 24 -46 73 -100 107 -39 25 -54 28 -130 29 -76 1 -90 -2
-132 -26 -129 -77 -193 -283 -193 -628 0 -231 31 -427 86 -549 29 -63 97 -141
123 -141 8 0 16 -6 18 -12 7 -21 170 -24 209 -4 18 9 38 16 46 16 8 0 19 4 26
10 65 52 93 82 134 143 65 99 69 102 99 88 14 -6 34 -11 44 -11 75 0 -88 -266
-196 -320 -16 -8 -36 -19 -44 -25 -28 -21 -124 -46 -197 -52 -73 -6 -229 13
-239 28 -3 5 -14 9 -24 9 -20 0 -83 30 -88 43 -2 4 -10 7 -17 7 -8 0 -47 33
-88 73 -147 146 -223 374 -221 667 3 374 120 629 339 743 131 68 139 69 313
69 91 0 168 -5 175 -10 7 -6 29 -13 50 -17 20 -4 40 -11 43 -16 8 -14 64 -11
64 4 0 7 7 23 16 35 18 27 57 29 82 5z m-1816 -24 c36 -8 70 -17 74 -22 4 -4
17 -7 28 -7 43 0 184 -82 252 -146 45 -43 124 -167 124 -195 0 -10 4 -20 9
-23 5 -3 12 -23 16 -43 4 -21 10 -42 15 -48 22 -29 32 -320 16 -460 -8 -71
-51 -218 -71 -245 -6 -8 -17 -28 -25 -45 -18 -38 -65 -99 -110 -145 -43 -43
-163 -120 -188 -120 -10 0 -22 -4 -27 -9 -6 -5 -37 -16 -70 -26 -33 -9 -78
-23 -100 -31 -23 -8 -55 -14 -72 -14 -18 0 -44 -5 -59 -10 -41 -16 -634 -33
-650 -19 -14 12 -18 56 -8 83 3 8 22 18 42 22 38 6 75 26 102 53 13 13 15 99
15 656 0 556 -2 644 -15 660 -20 24 -88 55 -122 55 -31 0 -45 31 -34 75 l7 26
392 -4 c283 -3 411 -8 459 -18z m753 -1494 l0 -120 -115 -6 c-65 -3 -120 -1
-127 4 -9 7 -13 45 -13 129 l0 119 128 -3 127 -3 0 -120z"/>
<path d="M1686 3454 c-3 -9 -6 -310 -6 -669 0 -591 2 -653 16 -659 9 -3 60 -4
113 0 87 5 115 12 191 47 40 18 119 106 141 156 11 25 24 55 29 66 5 11 17 52
26 90 15 58 18 112 17 310 0 151 -5 257 -13 285 -6 25 -14 59 -17 75 -3 17 -9
35 -13 40 -4 6 -11 25 -15 43 -3 17 -10 32 -15 32 -4 0 -10 10 -14 23 -7 27
-87 112 -124 131 -88 45 -302 65 -316 30z"/>
</g>
</svg>
